<?xml version="1.0" encoding="UTF-8"?>
<svg id="Capa_2" data-name="Capa 2" xmlns="http://www.w3.org/2000/svg" viewBox="0 0 276.57 181.03">
  <defs>
    <style>
      .cls-1, .cls-2 {
        stroke-width: .5px;
      }

      .cls-1, .cls-2, .cls-3, .cls-4 {
        stroke-miterlimit: 10;
      }

      .cls-1, .cls-3, .cls-4 {
        stroke: #2b5e49;
      }

      .cls-1, .cls-5 {
        fill: #2b5e49;
      }

      .cls-2 {
        stroke: #2b5e49;
      }

      .cls-2, .cls-6 {
        fill: #2b5e49s;
      }

      .cls-3, .cls-4 {
        fill: #2b5e49;
      }

      .cls-5, .cls-6 {
        stroke-width: 0px;
      }

      .cls-4 {
        stroke-width: 2px;
      }
    </style>
  </defs>
  <g id="Capa_2-2" data-name="Capa 2">
    <path class="cls-4" d="M.39,156.28c16.77-7.1,33.75-14.27,51.73-17.15,9.57-1.54,19.29-1.83,28.98-2.05,19.98-.44,39.96-.54,59.94-.63,26.47-.13,52.96-.25,79.37,1.56,18.84,1.29,37.7,3.58,55.88,8.71"/>
    <path class="cls-3" d="M53.6,133.46h-9.9l62.14-73.14s23.1,40.14,54.99,73.14h-6.6"/>
    <path class="cls-3" d="M63.5,133.46h84.68s-39.04-56.09-42.34-73.14l-42.34,73.14Z"/>
    <polyline class="cls-3" points="99.24 133.46 105.84 60.32 111.34 133.46"/>
    <path class="cls-6" d="M147.64,18.95c14.6,10.78,22.46,28.89,28.68,45.05.35.9.69,1.79,1.02,2.69l-11.9,8.39-3.47,2.44c-3.29-12.42-6.9-23.21-10.97-32.84,2.03-1.31,7.71-4.98,9.03-5.84l2.98-1.93-3.55.09c-6.35.16-10.32.26-11.85.31-2.79-5.48-5.83-9.97-9.05-13.38l9.07-4.99M179.69,73.16c3.53,10.05,6.72,20.67,9.5,31.61l-14.09,8.77-5.43,3.38,6.2-1.56c9.6-2.41,13.44-3.38,14.98-3.76,2.46,10.46,4.65,21.56,6.49,33.01.69,4.26,1.34,8.44,1.74,12.69h-26.85c0-.59-.02-1.18-.04-1.76-.74-28.32-3.56-51.42-8.87-72.71-.41-1.63-.82-3.22-1.23-4.8l4.18-1.14c.45-.12,10.04-2.74,13.41-3.71M147.71,17.76l-10.78,5.93c4.12,4.05,7.42,9.33,10.08,14.65.2-.02,12.48-.33,12.48-.33,0,0-9.6,6.2-9.74,6.29,5.32,12.45,9.34,25.63,12.61,38.74,5.94,23.82,8.2,48.02,8.84,72.5.02.91.04,1.82.05,2.74h28.93c-.39-4.64-1.11-9.26-1.85-13.85-1.84-11.44-4.06-22.81-6.74-34.06,0,0-15.97,4.01-15.97,4.01l14.71-9.15c-2.83-11.24-6.14-22.35-10.02-33.3-1.87.58-14.3,3.97-14.3,3.97l12.53-8.84c-.43-1.14-.86-2.29-1.3-3.43-6.46-16.79-14.41-34.99-29.54-45.88h0Z"/>
    <path class="cls-2" d="M132.12,101.15l-1.27-.8c15.49-24.36,35.19-32.65,35.39-32.73l.57,1.39c-.19.08-19.47,8.21-34.69,32.14Z"/>
    <path class="cls-6" d="M105.84,60.32s30.83,50.32,54.99,73.14h-12.65s-40.56-58.92-42.34-73.14Z"/>
    <path class="cls-6" d="M154.49,69.84c-.06-1.16,0-2.35.35-3.46s1.05-2.14,2.04-2.75c.33-.2.7-.36,1.09-.35s.78.22.94.57c.15.35.03.77-.19,1.09s-.53.56-.8.83c-1.08,1.05-1.64,2.55-1.83,4.04-.07.51.24,3.44-.45,3.54s-1.12-3.06-1.15-3.51Z"/>
    <path class="cls-6" d="M152.22,73.58c.13.27.33.58.63.55.28-.03.41-.35.48-.62.48-2.02.16-4.17-.63-6.09s-2.01-3.63-3.36-5.21c-.84-.99-1.75-1.95-2.9-2.53-.61-.31-1.59-.46-1.84.4-.2.69.54,1.2.95,1.63,1.04,1.09,1.93,2.29,2.7,3.59,1.57,2.64,2.66,5.53,3.97,8.3Z"/>
    <path class="cls-6" d="M156.61,90.81c.17.56.34,1.14.72,1.6s1,.75,1.56.56c.93-3.29.38-6.97-1.45-9.85-.54-.85-1.18-1.62-1.73-2.46-.47-.71-.79-2.04-1.31-2.54-.74,1.45.19,4.7.52,6.27.45,2.17,1.07,4.3,1.7,6.42Z"/>
    <path class="cls-6" d="M150.7,75.39c.33.43.72.93,1.26.93.18-.73-.21-1.47-.66-2.08-.9-1.23-2.05-2.26-3.23-3.24-1.93-1.61-3.94-3.12-6.03-4.52-.61-.41-3.99-3.14-4.79-2.3-1.71,1.76,7.24,6.53,8.27,7.13,1.91,1.1,3.8,2.33,5.18,4.08Z"/>
    <path class="cls-6" d="M140.17,74.35c1.32.39,2.7.6,4.01,1.02,2.04.64,3.93,1.78,5.45,3.29-.14-.45-.3-.89-.49-1.31-1.17-2.58-3.6-4.45-6.27-5.4-1.4-.5-2.89-.76-4.38-.79-1.05-.02-3.13-.49-4.07-.05,1.15,1.61,3.91,2.69,5.75,3.23Z"/>
    <path class="cls-6" d="M143.72,76.84c-.72-.4-1.45-.78-2.24-1-1.62-.45-3.34-.18-5.01-.36-1.37-.15-2.7-.6-4.06-.81s-2.86-.14-3.99.66c1.74.65,3.47,1.3,5.21,1.95.72.27,1.44.54,2.19.72,1.94.46,3.96.26,5.95.35.72.03,1.44.11,2.15.26.47.1,1.72.8,2.13.65,1.42-.53-1.82-2.14-2.33-2.43Z"/>
    <path class="cls-6" d="M141.49,79.71c-.57-.17-1.17-.17-1.77-.17-2.29,0-4.58,0-6.87,0-.81,0-1.63,0-2.42.2-.91.23-1.76.72-2.41,1.4-.13.13-.25.29-.26.47-.01.35.39.56.73.65,3.42.95,6.98.2,10.43-.1.85-.08,1.71-.13,2.57-.13.48,0,2.21.4,2.55.14.99-.74-1.95-2.29-2.57-2.47Z"/>
    <path class="cls-6" d="M131.95,84.65c-1.05,0-2.12,0-3.12.35-.71.25-1.35.67-1.97,1.09-.22.15-.45.32-.56.56-.17.39.04.86.38,1.12s.77.36,1.19.45c2.16.46,4.5.79,6.51-.13.67-.31,1.28-.75,1.94-1.08,1.27-.63,2.63-.78,4.02-.85.84-.05,1.69-.48.63-1.28-.85-.65-3.06-.22-4.1-.22l-4.92-.02Z"/>
    <g>
      <path class="cls-6" d="M128.78,94.95c-1.5,0-2.97-.45-4.15-1.26l-.12-.08.02-.15c.09-.83.84-1.44,2.22-1.82,1.5-.41,3.03-.75,4.56-1.03.32-.06.67-.13,1.04-.22.91-.2,1.94-.43,2.84-.43.23,0,.44.01.65.05.47.07,1.02.21,1.09.6.08.45-.49.81-1.31,1.27l-.16.09c-.53.3-1.03.66-1.52,1.01-.58.42-1.19.84-1.84,1.18-.99.51-2.14.78-3.3.78h0Z"/>
      <path class="cls-5" d="M135.18,90.23c.21,0,.42.01.61.04,1.86.28.32,1.05-.47,1.49-1.17.66-2.17,1.57-3.36,2.18-.98.5-2.08.75-3.19.75-1.42,0-2.84-.41-4-1.21.1-.91,1.15-1.36,2.03-1.6,1.5-.41,3.01-.75,4.54-1.02,1.11-.2,2.61-.64,3.84-.64M135.18,89.73c-.93,0-1.97.23-2.9.43-.36.08-.71.16-1.03.21-1.54.28-3.08.62-4.58,1.03-1.48.4-2.29,1.09-2.4,2.03l-.03.3.25.17c1.22.84,2.74,1.3,4.29,1.3,1.21,0,2.39-.28,3.42-.81.67-.35,1.28-.78,1.87-1.2.51-.36.99-.7,1.5-.99l.16-.09c.77-.42,1.56-.86,1.44-1.53-.11-.63-.94-.75-1.3-.81-.21-.03-.44-.05-.69-.05h0Z"/>
    </g>
    <g>
      <path class="cls-6" d="M122.41,101.23c-.25,0-.5-.01-.75-.03-.66-.06-1.3-.39-1.27-1.01.02-.39.34-.66.61-.84,1.42-.97,3.04-1.58,4.6-2.17l3.53-1.33c.24-.09.46-.18.69-.27,1.05-.42,2.04-.81,3.19-.81.29,0,.59.03.89.08l.38.07-.22.32c-.56.83-1.14,1.68-1.95,2.35-.66.55-1.44.93-2.19,1.29-2.14,1.04-4.8,2.35-7.52,2.35h0Z"/>
      <path class="cls-5" d="M133.01,95.02c.27,0,.55.02.85.07-.56.82-1.13,1.66-1.9,2.3-.64.53-1.39.9-2.14,1.26-2.34,1.15-4.83,2.32-7.41,2.32-.24,0-.49-.01-.73-.03-.47-.04-1.07-.27-1.04-.75.02-.28.27-.49.5-.65,1.39-.95,2.98-1.55,4.55-2.14,1.18-.44,2.35-.88,3.53-1.33,1.33-.5,2.45-1.06,3.79-1.06M133.01,94.52c-1.19,0-2.21.4-3.28.82-.22.09-.45.18-.68.27l-1.76.66-1.76.66c-1.58.59-3.21,1.21-4.66,2.2-.19.13-.68.47-.72,1.03-.04.67.57,1.19,1.49,1.28.25.02.51.03.77.03,2.78,0,5.47-1.31,7.63-2.37.76-.37,1.55-.76,2.24-1.33.83-.69,1.42-1.56,2-2.4l.43-.64-.76-.13c-.31-.05-.62-.08-.93-.08h0Z"/>
    </g>
    <g>
      <path class="cls-6" d="M119.14,107.92c-.24,0-.47-.03-.69-.08l.06-.25-.08-.23c.19-.1,1.22-1.13,1.9-1.81.7-.7,1.13-1.13,1.29-1.25,1.22-.91,2.58-1.7,4.03-2.33.26-.11.54-.25.85-.39,1.23-.58,2.76-1.3,3.97-1.3.1,0,.19,0,.28.01l.52.05-.37.37c-.58.58-1.37,1.01-2.14,1.42-.33.18-.66.35-.96.54-1.31.8-2.83,1.77-4.26,2.93l-.43.35c-.57.47-1.16.96-1.83,1.34-.72.41-1.46.62-2.15.62Z"/>
      <path class="cls-5" d="M130.47,100.54c.09,0,.17,0,.25.01-.8.81-2.08,1.32-3.06,1.92-1.48.91-2.94,1.85-4.29,2.95-.72.58-1.41,1.21-2.22,1.67-.62.35-1.32.59-2.03.59-.21,0-.43-.02-.64-.07,0,0,0,0,0,0,.22,0,2.87-2.81,3.26-3.1,1.23-.92,2.57-1.68,3.98-2.3,1.26-.55,3.27-1.67,4.72-1.67M130.47,100.04c-1.27,0-2.83.73-4.08,1.32-.3.14-.59.28-.84.39-1.47.64-2.84,1.43-4.08,2.35-.18.13-.6.55-1.32,1.27-.61.61-1.64,1.64-1.85,1.77,0,0,.08-.05.21-.05v.5s-.12.49-.12.49c.24.05.49.08.75.08.73,0,1.51-.23,2.27-.65.69-.39,1.29-.89,1.87-1.37.14-.12.28-.23.42-.35,1.41-1.15,2.93-2.12,4.23-2.91.29-.18.61-.35.95-.53.79-.42,1.6-.85,2.2-1.46l.73-.74-1.04-.11c-.1-.01-.2-.02-.31-.02h0Z"/>
    </g>
    <g>
      <path class="cls-6" d="M122.75,113.92c-.29-.84.06-1.7.45-2.51,1.15-2.4,2.34-4.88,4.29-6.81.47-.46.96-.9,1.44-1.34.5-.45,1-.9,1.48-1.38.57-.56.84-.62,1-.62s.3.08.37.23c.19.4-.17,1.15-.59,1.69-.42.53-.86,1.04-1.3,1.55-.48.56-.98,1.14-1.44,1.74-.99,1.31-1.81,2.78-2.6,4.2l-.23.41c-.68,1.22-1.39,2.37-2.55,2.98l-.26.14-.1-.27Z"/>
      <path class="cls-5" d="M131.43,101.52c.35,0,.16.79-.41,1.52-.88,1.13-1.87,2.16-2.73,3.29-1.1,1.45-1.96,3.05-2.85,4.63-.62,1.12-1.32,2.28-2.45,2.88-.27-.76.09-1.59.44-2.31,1.15-2.41,2.34-4.87,4.24-6.74.95-.93,1.98-1.78,2.93-2.72.4-.39.67-.55.83-.55M131.43,101.02c-.33,0-.69.22-1.18.7-.47.47-.98.93-1.47,1.37-.48.43-.98.88-1.45,1.35-1.99,1.95-3.24,4.57-4.34,6.88-.41.86-.78,1.77-.46,2.7l.19.55.51-.27c1.22-.64,1.95-1.82,2.65-3.08l.23-.41c.79-1.41,1.6-2.87,2.58-4.16.45-.59.95-1.17,1.43-1.72.43-.5.88-1.02,1.3-1.56.44-.57.87-1.42.61-1.95-.11-.23-.34-.37-.6-.37h0Z"/>
    </g>
    <g>
      <path class="cls-6" d="M132.38,110.07c-.19,0-.37-.07-.49-.19-.16-.15-.18-.29.49-2.61.1-.35.18-.63.2-.72.22-1.07.39-2.16.51-3.24.04-.33.05-.67.07-1.02.03-.67.07-1.36.25-2,.19-.64.49-1.27.78-1.89.16-.34.32-.69.46-1.02.24-.58.55-.71.77-.71l.22.03.08.22c-.02,2.5-.1,5.41-.79,8.18-.35,1.42-.87,2.8-1.52,4.11-.13.26-.27.51-.52.69-.15.11-.33.17-.52.17Z"/>
      <path class="cls-5" d="M135.43,96.92s.03,0,.05,0c-.02,2.73-.12,5.48-.78,8.12-.35,1.4-.86,2.77-1.5,4.06-.11.22-.24.45-.44.6-.11.08-.24.12-.37.12-.12,0-.23-.04-.32-.12-.14-.13.69-2.77.76-3.1.22-1.08.39-2.17.52-3.26.11-.97.04-2.04.31-2.97.28-.97.84-1.95,1.23-2.89.1-.25.28-.55.54-.55M135.43,96.42c-.3,0-.71.15-1,.86-.14.33-.3.67-.46,1.01-.3.63-.6,1.28-.79,1.93-.19.66-.23,1.37-.26,2.05-.02.35-.03.69-.07,1.01-.12,1.08-.29,2.16-.51,3.22-.02.09-.1.36-.2.71-.69,2.41-.7,2.6-.41,2.86.16.16.4.25.65.25.23,0,.47-.08.66-.21.29-.21.46-.5.6-.78.67-1.32,1.18-2.72,1.54-4.16.7-2.8.78-5.72.8-8.24v-.44s-.43-.06-.43-.06h-.04s-.09,0-.09,0h0Z"/>
    </g>
    <path class="cls-6" d="M136.52,102.76c-.16.76-.4,1.51-.36,2.29.39.09.79-.19.98-.54s.21-.77.25-1.17c.1-1.08,2.05-9.5.87-9.7-1.6-.27-1.52,8.08-1.74,9.12Z"/>
    <path class="cls-6" d="M140.54,91.88c-.31,1.22-.2,2.5-.25,3.76-.08,1.94-.52,3.83-.96,5.72.91.09,1.58-.84,1.88-1.7.84-2.45.32-5.14.65-7.71.07-.55.94-3.39.37-3.29-.7.13-1.54,2.62-1.69,3.22Z"/>
    <path class="cls-6" d="M143.57,91.04c-.1,1.95.04,3.92-.2,5.85,1.02-.47,1.46-1.71,1.5-2.84s-.21-2.25-.09-3.37c.06-.56,1.35-4.01-.13-3.86-.93.1-1.04,3.49-1.08,4.22Z"/>
    <path class="cls-6" d="M146.54,88.97c.07,3.5-.59,6.96-.83,10.45-.01.2-.02.42.06.6.23.51,1.04.45,1.4.02s.39-1.03.41-1.58c.11-3.52.22-7.04.33-10.55.01-.4.28-3.37-.99-2.93-.77.27-.4,3.34-.4,4Z"/>
    <path class="cls-6" d="M149.27,91.62c-.06,1.77-.24,3.54-.12,5.31s.58,3.56,1.66,4.97c-.52-1.67-.47-3.47-.28-5.21.28-2.54.86-5.06.87-7.62,0-.84-.8-7.35-2.39-6.7-.46.19.14,3.74.18,4.31.1,1.64.14,3.29.09,4.94Z"/>
    <path class="cls-6" d="M152.39,87.84c.45,2.51.46,5.07.47,7.62,0,1.57,0,3.14.01,4.71,2.14-4.76,2.45-10.32.86-15.3-.2-.62-2.2-4.81-2.91-2.87-.23.62.63,2.16.82,2.8.3,1,.56,2.02.75,3.05Z"/>
    <path class="cls-2" d="M139.83,58.71l-1.3-.74c15.06-26.56,27.36-38.77,27.49-38.89l1.05,1.07c-.12.12-12.29,12.21-27.23,38.56Z"/>
    <g>
      <path class="cls-6" d="M133.48,65.14c-3.24,4.21-6.23,8.98-6.44,14.29.64.1,1.25-.3,1.74-.74,1.91-1.72,2.99-4.16,3.82-6.6s1.46-4.96,2.72-7.2c.81-1.43,2.55-3.17,2.77-4.81-1.23-.2-3.88,4.1-4.61,5.05Z"/>
      <path class="cls-6" d="M139.49,61.83c-.17.99-.16,2-.33,2.99-.12.7-.32,1.38-.53,2.06-.51,1.62-1.08,3.21-1.7,4.79,1.05-.68,1.98-1.56,2.71-2.57.36-.5.68-1.04.87-1.63.24-.74.26-1.52.29-2.29.04-1.26.09-2.51.13-3.77.03-.78.39-2.33-.18-2.94-.6.71-1.26,2.41-1.26,3.37Z"/>
      <path class="cls-6" d="M142.47,2.18c.75.49,1.46,1.03,2.26,1.43.67.34,1.38.57,2.07.84,1.7.66,3.3,1.55,4.89,2.43,2.11,1.17,4.23,2.34,6.34,3.51.88.48,1.75.97,2.55,1.57,2.22,1.66,3.73,4.09,5.18,6.46-2.37-1.1-4.6-2.51-6.61-4.18-.76-.63-1.49-1.3-2.31-1.84-1.04-.68-2.19-1.16-3.33-1.65-5.16-2.26-10.05-5.14-14.53-8.56-.65-.5-3.16-2.66-.86-2.08,1.52.38,3.04,1.24,4.34,2.08Z"/>
      <path class="cls-6" d="M149.79,12.16c-2.55-.94-5.14-1.89-7.85-2.03-1.19-.06-2.38.03-3.56-.14-1.69-.24-3.26-1.02-4.94-1.29,1.58,2.01,4.19,2.9,6.69,3.41s5.12.76,7.4,1.9c1.08.54,2.06,1.27,3.09,1.9,1.48.89,3.07,1.56,4.66,2.23.54.23,1.09.46,1.63.69.51.22,1.03.43,1.57.58.59.16,1.2.24,1.8.35,1.4.25,2.93,1.14,4.3,1.22.1-1.99-4.54-4.28-5.99-5.06-2.81-1.53-5.82-2.65-8.81-3.75Z"/>
      <path class="cls-6" d="M148.23,17.94c-.94-.25-1.91-.39-2.87-.52-4.01-.57-8.25-1.11-11.98.45,1.28,1.08,3.01,1.48,4.68,1.57s3.35-.1,5.02-.04c4.17.15,8.08,1.79,11.87,3.38.63.26,4.25,2.21,3.53.61-.31-.7-1.4-.99-2.01-1.33-.84-.46-1.66-.96-2.48-1.45-1.83-1.07-3.69-2.13-5.76-2.67Z"/>
      <path class="cls-6" d="M147.25,23.88c-1.04-.18-2.09-.34-3.13-.48-3.13-.43-6.3-.73-9.46-.58-.54.03-1.1.07-1.57.33s-.83.8-.72,1.33c1.64.05,3.28.11,4.92.16,2.58.08,5.17.17,7.72.57,1.83.29,3.63.74,5.43,1.17.7.17,4.19,1.35,4.6.69,1.17-1.88-6.94-3.04-7.79-3.19Z"/>
      <path class="cls-6" d="M137.79,28.81c-3.17.13-6.69.42-8.86,2.74.25-.27,3.56.31,4.07.33,1.44.04,2.87,0,4.3-.07,2.81-.15,5.62-.45,8.42-.69,1.44-.12,2.88-.23,4.32-.28.69-.03,3.46.35,3.81-.31.41-.78-5.98-1.65-6.81-1.72-3.08-.25-6.18-.13-9.26,0Z"/>
      <path class="cls-6" d="M151.03,36.41l-9.53-.12c-1.12-.01-2.25-.03-3.36.15-.93.15-1.83.43-2.72.75-1.89.68-3.73,1.51-5.48,2.49,1.68.29,3.39.34,5.1.39,1.46.04,2.93.09,4.38-.12,1.28-.18,2.53-.56,3.79-.88,2.39-.6,4.84-.98,7.3-1.12.27-.22.52-.26.69-.56s-.02-.67-.17-.98Z"/>
      <path class="cls-6" d="M138.8,43.45c-4.54.73-9.32,1.56-12.87,4.49,2.19.49,4.51.35,6.63-.39,2.46-.86,4.62-2.51,7.15-3.1.96-.22,8.82-.5,8.34-1.54-.36-.78-2.66-.5-3.28-.42-1.99.27-3.98.64-5.96.96Z"/>
      <path class="cls-6" d="M139.05,49.35c-2.33.77-4.81.92-7.21,1.46-4.06.92-7.86,2.97-10.85,5.87,1.38.37,2.86.07,4.23-.35,3.28-1,6.32-2.62,9.44-4.02,1.57-.71,3.17-1.38,4.83-1.87.67-.2,3.86-.54,3.83-1.16-.09-1.77-3.7-.11-4.27.08Z"/>
      <path class="cls-6" d="M131.72,57.14c-1.72.54-3.53.92-5.08,1.85s-2.84,2.57-2.72,4.38c1.26.55,2.71.63,4.02.22,1.43-.45,2.63-1.43,3.79-2.39,1.2-.99,2.39-1.99,3.59-2.98.7-.58,2.57-1.58,2.55-2.61-.02-1.42-1.52-.3-2.2,0-1.27.57-2.7.91-3.94,1.53Z"/>
      <path class="cls-6" d="M141.59,68.22c1.15-.5,1.99-1.56,2.48-2.71s.7-2.41.9-3.65c.27-1.69.52-3.52-.33-5.01-.41-.72-1.38-2.04-1.9-.74-.37.93.27,2.96.28,4,.01,2.76-.47,5.52-1.43,8.1Z"/>
      <path class="cls-6" d="M147.23,59.52c.06,1.16.03,2.41.68,3.37.72-.35.93-1.27,1.01-2.07.13-1.24.17-2.48.21-3.72.02-.64.04-1.29-.11-1.92-.21-.88-3.09-5.75-3.56-2.93-.15.91.88,2.47,1.13,3.38.35,1.27.57,2.58.63,3.89Z"/>
      <path class="cls-6" d="M151.78,57.48c.5,1.55,1.01,3.12,1.02,4.75.26-.18.48-.43.63-.71.17-.3.25-.65.32-.98.72-3.34.29-6.88-1.09-9.99-.41-.92-1.54-3.79-2.74-3.73-1.93.09-.65,2.98-.38,3.82.74,2.29,1.48,4.57,2.22,6.86Z"/>
      <path class="cls-6" d="M154.83,49.7c1.73,3.06,3.27,6.24,4.59,9.5.58-1.58-.06-3.32-.7-4.87-1.08-2.65-2.15-5.29-3.23-7.94-.27-.66-2.66-6.51-3.51-3.69-.29.96.6,2.68.99,3.54.54,1.2,1.2,2.33,1.85,3.47Z"/>
      <path class="cls-6" d="M156.83,44.63c1.31,3.13,2.61,6.26,3.92,9.39.2-1.92.06-3.91-.62-5.72-.29-.77-.67-1.5-.96-2.27-.66-1.74-.85-3.62-1.32-5.42-.21-.78-2.17-5.6-3.12-2.84-.31.89.45,2.49.73,3.34.4,1.2.89,2.36,1.38,3.52Z"/>
      <path class="cls-6" d="M161,43.1c1.91,3.26,4.33,6.19,6.43,9.32.36-1.9-.34-3.84-1.26-5.54s-2.06-3.29-2.72-5.11c-.32-.9-.52-1.84-.81-2.75-.31-.97-3.33-7.9-4.63-5.04-.51,1.13.44,3.41.82,4.5.56,1.61,1.31,3.14,2.17,4.61Z"/>
      <path class="cls-6" d="M161.63,31.55c2.98,6.08,7.85,11.21,9.97,17.63.25.76.72,1.72,1.52,1.6-.11-2.28-1.01-4.43-1.9-6.53-.49-1.16-.98-2.32-1.47-3.48-1.16-2.75-2.31-5.49-3.71-8.12-.56-1.05-1.17-2.1-2.05-2.89-.55-.5-1.74-1.56-2.53-1.08-.96.59-.18,2.17.17,2.88Z"/>
      <path class="cls-6" d="M173.48,42.03c1.91,1.93,4.13,3.58,5.69,5.81.06-1.33-.64-2.57-1.31-3.72-2.57-4.44-5.03-8.94-7.38-13.5-.81-1.57-1.63-3.16-2.77-4.52-.39-.47-1.39-1.77-2.04-1.83-1.07-.09-.57,1.17-.41,1.85.88,3.75,2.23,7.41,4.21,10.72,1.13,1.88,2.46,3.64,4,5.2Z"/>
      <path class="cls-6" d="M181.11,41.7c3.22,3.23,7.19,5.7,10.04,9.25-3.45-4.73-6.91-9.45-10.36-14.18-1.96-2.69-3.93-5.38-6.06-7.94-2.14-2.58-4.64-4.73-6.91-7.13,3.83,4.93,6.17,10.92,9.87,15.97,1.04,1.42,2.17,2.79,3.42,4.04Z"/>
    </g>
    <path class="cls-1" d="M180.91,157.55l-4.75-4.88c-4.98-5.12-10.12-10.42-15.78-14.94-2.83-2.26-5.84-4.37-8.76-6.41-3.21-2.25-6.53-4.57-10.32-5.62l.4-1.45c4.04,1.12,7.62,3.63,10.78,5.84,2.94,2.06,5.97,4.18,8.83,6.47,5.73,4.58,10.91,9.91,15.92,15.07l4.74,4.88-1.08,1.04Z"/>
    <g>
      <path class="cls-6" d="M158.59,132.28c.25-.97,2.04-1.51,3.35-1.91.29-.09.54-.16.71-.23,1.64-.6,3.33-1.15,4.96-1.68.89-.29,1.78-.58,2.69-.78.9-.2,1.83-.31,2.75-.34h.17s.07.15.07.15c.21.51.09,1.15-.31,1.65-.38.47-.93.74-1.32.9-1.42.61-2.98.77-4.49.93l-.81.09c-1.22.14-2.46.45-3.66.75-1.26.32-2.57.64-3.85.77l-.36.03.09-.35Z"/>
      <path class="cls-5" d="M173.07,127.6c.19.46.04,1.01-.27,1.39-.31.39-.76.64-1.22.83-1.64.7-3.46.79-5.23.99-2.53.29-5.04,1.28-7.51,1.52.27-1.04,3-1.62,3.91-1.96,1.64-.6,3.31-1.14,4.98-1.68.87-.28,1.75-.57,2.64-.76.89-.2,1.8-.31,2.71-.33M173.4,127.1h-.34c-.94.03-1.88.15-2.8.35-.92.2-1.82.49-2.69.78-1.66.54-3.35,1.08-5,1.69-.18.06-.42.14-.7.22-1.7.51-3.26,1.06-3.52,2.08l-.18.69.71-.07c1.3-.13,2.62-.46,3.89-.77,1.19-.3,2.43-.61,3.63-.74.27-.03.53-.06.8-.09,1.53-.16,3.11-.32,4.57-.94.41-.17,1-.46,1.41-.98.45-.56.59-1.31.35-1.9l-.13-.32h0Z"/>
    </g>
    <g>
      <path class="cls-6" d="M155.38,130.76c-.31,0-.46-.14-.52-.26-.14-.26-.04-.63.33-1.21.78-1.23,2.18-2.6,3.41-3.34,1.29-.78,2.79-1.03,4.24-1.27.29-.05.58-.1.87-.15,4.08-.75,7.99-2.45,11.32-4.93l.54-.41-.15.66c-.69,3.03-2.3,5.34-4.4,6.35-.95.46-1.99.65-3,.85l-.29.06c-3.5.68-6.98,1.69-10.32,3.02l-.3.12c-.56.23-1.26.52-1.71.52Z"/>
      <path class="cls-5" d="M175.17,119.79c-.58,2.53-1.93,5.06-4.27,6.18-1.01.48-2.14.67-3.24.88-3.54.68-7.02,1.7-10.37,3.03-.53.21-1.43.63-1.92.63-.38,0-.51-.26.02-1.09.76-1.2,2.12-2.53,3.32-3.27,1.5-.91,3.31-1.08,5.03-1.39,4.12-.76,8.06-2.47,11.42-4.98M175.96,118.57l-1.09.81c-3.3,2.45-7.17,4.14-11.21,4.89-.29.05-.58.1-.87.15-1.47.25-3,.5-4.33,1.31-1.27.77-2.68,2.15-3.49,3.42-.3.48-.58,1.03-.34,1.47.08.14.28.39.74.39s1.07-.23,1.8-.54l.3-.12c3.33-1.32,6.79-2.33,10.28-3.01l.3-.06c1.03-.2,2.09-.4,3.07-.87,2.98-1.42,4.12-4.7,4.54-6.52l.3-1.32h0Z"/>
    </g>
    <g>
      <path class="cls-6" d="M151.74,127.22l-.1-.03c-.21-.08-.34-.24-.39-.46-.24-1.15,2.38-3.9,2.41-3.93.72-.75,1.57-1.36,2.39-1.95l4.48-3.25c2.26-1.64,4.56-3.31,6.95-4.77.8-.49,1.75-1.04,2.79-1.39.13-.04.29-.09.47-.09h.13c.49.08.77.57.82,1.02.16,1.33-1.04,2.32-2.09,3.02l-14.94,9.97c-.08.06-.26.19-.47.36-1.26.98-2.01,1.5-2.39,1.5h-.05Z"/>
      <path class="cls-5" d="M170.74,111.6s.06,0,.09,0c.35.05.57.43.61.79.14,1.19-.98,2.12-1.99,2.78-3.98,2.66-7.97,5.32-11.95,7.98-1,.66-1.99,1.33-2.99,1.99-.36.24-2.25,1.82-2.72,1.82-.02,0-.04,0-.05,0-1.09-.44,1.73-3.59,2.11-3.98.71-.73,1.53-1.33,2.35-1.92,1.49-1.08,2.99-2.17,4.48-3.25,2.27-1.65,4.54-3.3,6.94-4.76.87-.53,1.77-1.04,2.73-1.37.13-.04.26-.08.39-.08M170.74,111.1c-.2,0-.38.05-.55.11-1.06.36-2.02.92-2.84,1.41-2.41,1.47-4.73,3.16-6.97,4.78l-4.01,2.91-.48.35c-.83.6-1.68,1.22-2.42,1.98-.11.12-2.75,2.86-2.48,4.15.06.3.25.52.54.64.07.03.16.05.24.05.41,0,.98-.35,2.54-1.56.21-.17.38-.3.46-.35l2.99-1.99,6.35-4.24,5.6-3.74c1.12-.75,2.38-1.79,2.2-3.26-.06-.54-.41-1.13-1.03-1.23-.05,0-.11-.01-.17-.01h0Z"/>
    </g>
    <g>
      <path class="cls-6" d="M149.12,124.78c-.41,0-.8-.16-1.16-.46-.98-.84-.54-2.59-.23-3.86.05-.22.11-.42.14-.6.39-1.84.95-3.57,1.69-5.15,1.19-2.54,2.87-4.83,4.49-7.04,1.82-2.48,3.89-5.29,6.81-6.91l.29-.16.07.33c.59,2.77-.58,5.58-1.73,8-1.58,3.34-3.33,6.66-5.21,9.85-.1.17-.23.42-.39.71-1,1.85-2.85,5.29-4.78,5.29h0Z"/>
      <path class="cls-5" d="M160.98,100.98c.57,2.67-.54,5.38-1.71,7.85-1.59,3.35-3.32,6.63-5.2,9.83-.7,1.2-2.87,5.88-4.95,5.88-.34,0-.67-.12-1-.4-1.03-.88-.23-3.11,0-4.22.37-1.75.91-3.47,1.67-5.09,1.17-2.51,2.83-4.76,4.47-7,1.91-2.6,3.91-5.27,6.73-6.84M161.33,100.21l-.59.33c-2.96,1.65-5.05,4.48-6.89,6.98-1.63,2.22-3.32,4.51-4.52,7.08-.74,1.59-1.32,3.34-1.71,5.2-.04.17-.09.37-.14.59-.32,1.26-.79,3.17.31,4.12.41.35.85.52,1.33.52,2.08,0,3.98-3.53,5-5.43.15-.29.28-.53.38-.7,1.88-3.2,3.64-6.52,5.22-9.87,1.16-2.46,2.35-5.32,1.75-8.16l-.14-.66h0Z"/>
    </g>
    <g>
      <path class="cls-6" d="M144.88,123.46c-.56,0-1.08-.53-1.31-1.35-.56-1.94-.44-4.75-.17-6.56.28-1.91,1.08-3.69,1.84-5.42.73-1.64,1.49-3.34,1.78-5.12l.29-1.74.2,1.75c.4,3.44-.15,6.89-.68,10.23l-.19,1.2c-.14.93-.24,1.89-.33,2.82-.09.94-.19,1.9-.33,2.85-.13.84-.54,1.34-1.1,1.34Z"/>
      <path class="cls-5" d="M147.27,105.05c.44,3.81-.29,7.61-.87,11.36-.29,1.88-.37,3.79-.67,5.67-.12.77-.47,1.13-.86,1.13-.41,0-.85-.41-1.07-1.17-.53-1.84-.45-4.57-.16-6.45.55-3.69,3.01-6.86,3.63-10.54M147.36,101.49l-.58,3.48c-.29,1.74-1.04,3.43-1.76,5.06-.77,1.74-1.57,3.55-1.86,5.49-.27,1.83-.39,4.68.18,6.66.27.93.88,1.53,1.55,1.53.54,0,1.17-.41,1.35-1.55.15-.95.24-1.92.34-2.86.09-.93.19-1.88.33-2.81l.19-1.2c.53-3.36,1.09-6.83.68-10.3l-.41-3.5h0Z"/>
    </g>
    <g>
      <path class="cls-6" d="M160.71,145.2c-.17,0-.34-.05-.47-.1-.54-.18-1.16-.39-1.61-.85-.62-.63-.77-1.53-.86-2.33-.02-.15-.05-.36-.08-.6-.29-2.04-.51-4.09.26-4.65l.15-.11.15.11c.74.57,1.54,1.75,2.11,2.62l.11.16c.98,1.47,1.33,3.37.94,5.09-.04.19-.1.38-.27.51-.12.1-.26.15-.43.15h0Z"/>
      <path class="cls-5" d="M158.09,136.87c.76.58,1.61,1.89,2.17,2.72.95,1.42,1.28,3.23.91,4.89-.03.14-.07.29-.18.38-.08.06-.17.09-.27.09-.13,0-.27-.04-.39-.08-.54-.19-1.11-.38-1.51-.79-.56-.56-.7-1.4-.79-2.19-.11-.98-.77-4.41.07-5.02M158.1,136.24l-.3.22c-.89.64-.68,2.68-.36,4.89.03.24.06.45.08.59.09.84.25,1.8.93,2.48.5.5,1.17.73,1.71.91.15.05.35.11.56.11.29,0,.48-.11.59-.2.25-.21.32-.51.35-.65.41-1.79.04-3.76-.98-5.28l-.1-.15c-.59-.88-1.39-2.09-2.17-2.69l-.3-.23h0Z"/>
    </g>
    <g>
      <path class="cls-6" d="M155.52,160.21c-.26,0-.53-.09-.73-.25-.37-.28-.56-.71-.73-1.13-1.99-4.99-2.95-10.79-2.96-17.72,0-.23-.01-.52-.02-.84-.07-1.99-.18-5,1.34-5.81.25-.13.47-.2.68-.2.63,0,.9.59,1.14,1.12l.14.3c.22.44.48.87.73,1.28.3.49.61,1,.86,1.54.8,1.75.89,3.68.92,5.68.06,4.94-.17,9.96-.4,14.81-.01.29-.03.63-.24.9-.17.21-.43.32-.72.32h0Z"/>
      <path class="cls-5" d="M153.11,134.52c.56,0,.75.66,1.05,1.27.48.97,1.14,1.83,1.59,2.82.79,1.72.87,3.68.89,5.57.06,4.95-.17,9.89-.4,14.83-.01.25-.03.52-.19.72-.13.16-.32.23-.53.23s-.42-.07-.58-.19c-.32-.25-.5-.64-.65-1.02-2.21-5.57-2.94-11.63-2.94-17.63,0-1.53-.44-5.56,1.19-6.43.22-.12.41-.17.56-.17M153.11,134.02c-.25,0-.51.07-.8.23-1.66.89-1.55,3.99-1.48,6.04.01.32.02.6.02.83,0,6.96.98,12.79,2.98,17.81.18.45.39.91.81,1.24.25.19.57.3.88.3.38,0,.7-.15.92-.42.27-.33.29-.74.3-1.01.23-4.87.46-9.9.4-14.86-.03-2.02-.12-3.98-.94-5.78-.25-.55-.57-1.07-.87-1.56-.26-.43-.51-.84-.72-1.27-.05-.1-.09-.19-.14-.29-.26-.56-.58-1.26-1.36-1.26h0Z"/>
    </g>
    <g>
      <path class="cls-6" d="M147.29,148.23c-.26,0-.49-.09-.66-.25-.38-.34-.48-1.39-.56-2.52-.01-.19-.02-.35-.04-.45-.11-.94-.16-1.95-.16-2.99,0-1.8.16-3.7.51-6,.02-.1.04-.28.06-.51.34-3,.73-4.85,1.59-4.85,1.44.17,2.04,5.4,2.04,5.45.05.98-.09,1.96-.22,2.91l-1.01,7.17c-.07.48-.15,1.08-.53,1.54-.25.31-.64.5-1.03.5h0Z"/>
      <path class="cls-5" d="M148.04,130.91s.02,0,.04,0c.97.12,1.72,4.42,1.76,5.21.05.96-.09,1.91-.22,2.86-.34,2.39-.67,4.78-1.01,7.17-.07.5-.15,1.03-.47,1.42-.2.25-.53.41-.84.41-.18,0-.36-.06-.49-.18-.41-.38-.45-2.27-.51-2.82-.11-.98-.16-1.97-.16-2.96,0-2,.21-3.99.51-5.96.11-.73.46-5.15,1.41-5.15M148.04,130.41c-1.06,0-1.46,1.78-1.84,5.07-.03.23-.05.4-.06.5-.35,2.3-.51,4.22-.52,6.04,0,1.05.05,2.06.16,3.01.01.1.02.26.04.44.11,1.49.23,2.31.64,2.68.22.21.51.31.83.31.46,0,.93-.23,1.22-.59.42-.51.51-1.15.58-1.66l.5-3.54.51-3.63c.14-.96.28-1.95.22-2.96,0-.05-.57-5.48-2.19-5.68h-.03s-.07,0-.07,0h0Z"/>
    </g>
    <g>
      <path class="cls-6" d="M135.87,150.87c1.17-2.09,1.81-4.46,2.44-6.76.3-1.1.61-2.23.97-3.33.48-1.46,1.08-2.9,1.66-4.29l1.65-3.98.13-.33c1.09-2.83,1.75-3.93,2.36-3.93h.04l.13.03c1.28.48-.04,5.12-.05,5.17-.42,1.41-1.11,2.74-1.77,4.02-.63,1.22-1.28,2.47-1.69,3.79-.23.73-.39,1.49-.54,2.23-.21,1-.42,2.03-.81,3-.78,1.98-2.3,3.7-4.17,4.72l-.76.42.42-.76Z"/>
      <path class="cls-5" d="M145.07,128.5s.06,0,.08.02c.91.34,0,4.17-.2,4.86-.81,2.73-2.61,5.08-3.46,7.8-.54,1.72-.68,3.54-1.35,5.22-.77,1.94-2.23,3.59-4.05,4.59,1.74-3.12,2.3-6.74,3.42-10.13.48-1.46,1.08-2.89,1.67-4.32.54-1.31,1.09-2.62,1.63-3.94.23-.56,1.49-4.1,2.26-4.1M145.07,128c-.75,0-1.43,1.07-2.6,4.09-.06.15-.1.26-.13.33l-.49,1.19-1.14,2.75c-.58,1.41-1.19,2.87-1.68,4.35-.36,1.1-.67,2.24-.97,3.34-.62,2.28-1.26,4.64-2.41,6.7l-.85,1.52,1.52-.83c1.92-1.05,3.48-2.81,4.28-4.84.39-.99.61-2.03.82-3.04.15-.73.31-1.49.54-2.21.4-1.29,1.05-2.54,1.68-3.75.67-1.29,1.36-2.63,1.79-4.06.06-.2,1.44-4.9-.1-5.47-.08-.03-.17-.05-.26-.05h0Z"/>
    </g>
    <g>
      <path class="cls-6" d="M129.27,143.83c.3-.06,1.1-1.24,1.44-1.75.17-.25.31-.46.4-.58.69-.87,1.36-1.75,2.02-2.65,1.16-1.58,2.37-3.31,3.69-5.3.47-.71.92-1.43,1.37-2.16.68-1.1,1.38-2.24,2.15-3.29.28-.39.78-1.07,1.36-1.07.19,0,.37.07.53.22.39.36.19,1.28-.63,2.96-.38.79-.84,1.51-1.28,2.21-.31.49-.61.97-.89,1.47-.42.75-.79,1.55-1.14,2.33-.53,1.17-1.09,2.38-1.84,3.46-1.65,2.38-4.23,4.07-7.08,4.62l-.1-.49Z"/>
      <path class="cls-5" d="M141.7,127.29c.12,0,.24.05.36.15.43.41-.49,2.28-.69,2.7-.62,1.27-1.47,2.41-2.16,3.65-1.06,1.89-1.73,3.99-2.97,5.77-1.61,2.32-4.15,3.98-6.93,4.52.54-.1,1.63-1.97,1.99-2.42.69-.87,1.36-1.76,2.02-2.65,1.28-1.74,2.5-3.51,3.7-5.31,1.19-1.79,2.25-3.71,3.52-5.44.21-.29.69-.96,1.16-.96M141.7,126.79c-.71,0-1.25.74-1.54,1.14-.79,1.09-1.5,2.23-2.18,3.33-.44.71-.9,1.45-1.36,2.15-1.32,1.98-2.52,3.71-3.68,5.29-.68.92-1.36,1.81-2.01,2.64-.1.12-.24.34-.41.59-.28.42-1.02,1.52-1.31,1.65l.22.97c2.91-.57,5.55-2.29,7.24-4.73.76-1.1,1.32-2.32,1.86-3.49.35-.77.72-1.57,1.13-2.31.28-.49.59-.99.89-1.46.45-.71.91-1.44,1.28-2.21.91-1.88,1.08-2.82.59-3.28-.2-.19-.45-.29-.7-.29h0Z"/>
    </g>
    <g>
      <path class="cls-6" d="M128.42,136.33c-.51-1.32.34-2.68,1.24-3.82.92-1.18,1.96-2.51,3.36-3.34.46-.27.96-.49,1.43-.7.23-.1.46-.2.68-.31.63-.3,1.24-.66,1.82-1.06.1-.07.25-.21.42-.37.54-.5.95-.86,1.28-.87h0c.66,0,.85.25.91.46.23.81-1.4,2.23-1.67,2.4-.6.38-1.26.66-1.9.94-.49.21-1,.44-1.47.7-2.48,1.36-4.17,3.84-5.67,6.03l-.27.39-.17-.45Z"/>
      <path class="cls-5" d="M138.72,126.1c1.66,0-.53,2.13-.96,2.4-1.06.66-2.27,1.03-3.36,1.63-2.48,1.36-4.16,3.78-5.75,6.11-.47-1.23.39-2.54,1.2-3.58.96-1.23,1.95-2.48,3.29-3.28.66-.4,1.4-.67,2.09-1,.65-.31,1.27-.67,1.85-1.08.34-.23,1.17-1.19,1.57-1.2.02,0,.05,0,.07,0M138.72,125.6h-.08c-.42.02-.85.38-1.44.94-.15.15-.32.3-.39.35-.56.39-1.16.74-1.78,1.03-.22.11-.45.21-.68.31-.48.21-.98.43-1.46.71-1.44.86-2.5,2.21-3.43,3.4-.94,1.2-1.83,2.62-1.27,4.07l.34.89.54-.79c1.48-2.17,3.16-4.62,5.58-5.96.46-.25.94-.46,1.45-.69.64-.28,1.31-.57,1.93-.96.02-.01,2.09-1.59,1.78-2.68-.07-.24-.3-.64-1.08-.64h0Z"/>
    </g>
    <g>
      <path class="cls-6" d="M141.02,123.14c-.08-1.38-.16-2.81-.58-4.14-.16-.52-.38-1.05-.59-1.55-.27-.65-.55-1.32-.73-2.03-.44-1.79-.33-4.04.29-5.6.26-.65.56-.96.92-.96.13,0,.32.04.52.25.44.47.67,1.47.63,2.13-.02.39-.07.79-.12,1.18-.07.58-.14,1.18-.12,1.77.03.82.23,1.61.44,2.44.14.54.28,1.11.37,1.67.18,1.16.14,2.33.1,3.47-.03.9-.31,1.44-.83,1.59l-.3.09-.02-.31Z"/>
      <path class="cls-5" d="M140.35,109.11c.53,0,.95,1.28.9,2.12-.06.99-.28,1.98-.24,2.97.05,1.41.6,2.75.82,4.14.18,1.13.14,2.28.09,3.42-.02.54-.14,1.21-.65,1.36-.08-1.41-.17-2.85-.59-4.2-.37-1.21-1.01-2.34-1.31-3.57-.41-1.64-.34-3.86.29-5.44.23-.58.47-.8.69-.8M140.35,108.61c-.71,0-1.04.84-1.15,1.12-.64,1.61-.76,3.92-.31,5.75.18.72.46,1.4.74,2.06.22.52.42,1.02.58,1.53.4,1.3.48,2.72.57,4.08l.04.63.6-.18c.63-.19.97-.8,1.01-1.82.04-1.15.09-2.34-.1-3.51-.09-.58-.24-1.15-.38-1.7-.21-.82-.41-1.59-.44-2.39-.02-.57.05-1.13.12-1.73.05-.39.1-.79.12-1.2.04-.73-.21-1.79-.7-2.32-.26-.27-.52-.33-.7-.33h0Z"/>
    </g>
    <g>
      <path class="cls-6" d="M140.21,124.38c-1-1.41-2.41-2.51-3.76-3.58-.38-.3-.76-.6-1.13-.9l-.13-.11c-1.3-1.07-3.48-2.85-3.42-4.71.04-1.3.74-1.49,1.15-1.49,1.15,0,2.69,1.42,2.86,1.58,1.71,1.61,3.36,3.42,3.86,5.69.04.17.07.35.1.52.1.56.2,1.09.49,1.51l.09.12c.27.37.67.92.29,1.38l-.21.26-.19-.27Z"/>
      <path class="cls-5" d="M132.91,113.84c.87,0,2.12.98,2.69,1.51,1.66,1.56,3.3,3.34,3.79,5.56.16.73.2,1.51.63,2.12.26.37.68.85.39,1.21-1.3-1.83-3.21-3.11-4.94-4.53-1.24-1.02-3.52-2.82-3.46-4.62.03-.92.4-1.25.9-1.25M132.91,113.34c-.4,0-1.35.17-1.4,1.73-.07,1.99,2.17,3.82,3.51,4.91l.14.11c.37.31.75.61,1.14.91,1.34,1.06,2.74,2.15,3.71,3.53l.38.54.41-.52c.5-.62-.01-1.31-.29-1.69l-.09-.12c-.27-.37-.36-.88-.45-1.41-.03-.18-.06-.36-.1-.53-.52-2.34-2.19-4.18-3.93-5.82-.18-.17-1.78-1.64-3.03-1.64h0Z"/>
    </g>
    <g>
      <path class="cls-6" d="M124.23,129.91c-.29,0-.59-.01-.88-.03l-.39-.03.19-.34c1.42-2.58,2.91-4.98,5.37-6.01.93-.39,2-.58,3.28-.58.95,0,1.89.1,2.93.22.11.01.26.01.44.02.95.03,2.54.07,2.54,1.14,0,.73-1.16,1.29-2.45,1.84-.24.11-.45.19-.58.26-2.96,1.56-6.64,3.51-10.46,3.51h0Z"/>
      <path class="cls-5" d="M131.79,123.16c.97,0,1.95.11,2.9.22.65.07,2.76-.09,2.77.92,0,.8-2.27,1.56-2.9,1.88-3.25,1.72-6.7,3.48-10.34,3.48-.29,0-.57-.01-.86-.03,1.3-2.35,2.77-4.86,5.25-5.9,1.01-.42,2.08-.56,3.18-.56M131.79,122.66c-1.31,0-2.42.2-3.37.6-2.54,1.07-4.04,3.5-5.49,6.12l-.38.68.77.06c.3.02.6.04.9.04,3.88,0,7.59-1.96,10.57-3.54.13-.07.33-.15.56-.25,1.43-.61,2.61-1.19,2.6-2.08,0-1.31-1.82-1.36-2.79-1.39-.17,0-.32,0-.43-.02-1.04-.12-1.99-.22-2.95-.22h0Z"/>
    </g>
    <g>
      <path class="cls-6" d="M8.1,181.03c-.43,0-.95-.14-1.56-.42-.61-.28-1.05-.77-1.33-1.48-.13-.33-.19-.66-.19-.99,0-.79.27-1.62.82-2.49.54-.87,1.25-1.75,2.11-2.64.91-.94,2.11-2.01,3.59-3.21,1.48-1.2,3.16-2.46,5.04-3.78,1.87-1.32,3.84-2.63,5.91-3.93,2.06-1.3,4.15-2.53,6.25-3.69,2.1-1.15,4.14-2.17,6.1-3.06,1.96-.89,3.77-1.56,5.43-2.03,1.66-.47,3.06-.67,4.2-.59.99.05,1.83.5,2.53,1.35.7.85,1.04,1.91,1.04,3.17,0,1.01-.17,2.14-.49,3.38-.33,1.24-.75,2.5-1.27,3.78-.52,1.28-1.1,2.5-1.73,3.67,1.01-.13,1.95-.3,2.81-.53.86-.23,1.55-.53,2.05-.91.51-.38.73-.82.68-1.33v-.04c0-.35.11-.53.34-.53.3,0,.46.25.46.76,0,.74-.35,1.35-1.04,1.84-.7.49-1.56.88-2.6,1.16-1.04.28-2.09.49-3.15.65-.15.33-.33.79-.53,1.37-.2.58-.34,1.09-.42,1.52-.05.2-.08.37-.08.49s.01.26.04.4c.02.14.05.29.08.44,0,.02,0,.06.02.11.01.05.02.09.02.11.05.33-.03.61-.23.86-.2.24-.43.41-.68.51-.15.08-.33.11-.53.11-.41,0-.65-.2-.72-.61-.03-.08-.04-.23-.04-.46-.13-.36-.33-.78-.61-1.27-.28-.49-.58-.98-.89-1.46-.32-.48-.61-.89-.87-1.23-.27-.34-.45-.53-.55-.55-.2-.08-.79-.19-1.75-.34-.48-.08-1.06-.17-1.75-.29-.68-.11-1.39-.25-2.13-.4-.71-.13-1.41-.29-2.09-.49s-1.25-.43-1.71-.68c-.33-.2-.6-.43-.82-.68-.22-.25-.32-.52-.32-.8,0-.23.08-.46.23-.68.25-.3.58-.52.99-.65.4-.13.85-.19,1.33-.19.73,0,1.53.12,2.39.36.86.24,1.72.56,2.56.97.85.41,1.62.84,2.32,1.31.7.47,1.24.93,1.62,1.39.2.03.45.04.74.04h.93c.35,0,.73,0,1.14-.02.4-.01.81-.03,1.22-.06.53-1.29,1.04-2.66,1.52-4.1.48-1.44.87-2.83,1.18-4.14.3-1.32.46-2.43.46-3.34,0-.99-.26-1.67-.78-2.05-.52-.38-1.2-.57-2.03-.57-1.39,0-2.95.27-4.67.82-1.72.54-3.53,1.29-5.43,2.24s-3.83,2.03-5.78,3.25c-1.95,1.22-3.86,2.49-5.72,3.82-1.86,1.33-3.62,2.66-5.28,3.99-1.66,1.33-3.14,2.58-4.43,3.74s-2.34,2.19-3.15,3.08c-.38.41-.68.86-.91,1.37s-.34,1.01-.34,1.52c0,.91.37,1.62,1.1,2.13.25.18.38.35.38.53,0,.13-.06.23-.19.3-.15.13-.42.19-.8.19ZM36.23,168c-.66-.41-1.48-.81-2.45-1.22-.98-.4-1.91-.65-2.79-.72h-.3c-.35,0-.53.06-.53.19,0,.1.07.2.21.3.14.1.27.18.4.23.4.15.94.3,1.6.46.66.15,1.34.3,2.03.44.7.14,1.31.25,1.84.32ZM41.59,172.03c.02-.05.04-.11.04-.17s.01-.13.04-.21c.1-.38.2-.77.3-1.18s.21-.79.34-1.14c-.48.03-.93.04-1.35.06-.42.01-.8,0-1.16-.02.28.35.58.76.91,1.22.33.46.62.94.87,1.44Z"/>
      <path class="cls-6" d="M50.29,174.04c-.71,0-1-.23-.87-.68.02-.15.09-.29.19-.42l.11-.15c.02-.05.04-.09.04-.11.2-.46.56-1.08,1.06-1.88s1.1-1.66,1.79-2.58,1.39-1.81,2.11-2.64c.72-.84,1.4-1.52,2.03-2.05.63-.53,1.15-.8,1.56-.8.13,0,.35.08.68.25.33.17.58.3.76.4s.27.24.27.42c0,.13-.04.25-.13.36-.09.11-.2.17-.32.17-.05,0-.1,0-.15-.02-.05-.01-.1,0-.15.02-.05,0-.18.04-.38.11-.41.18-.89.5-1.46.97-.57.47-1.17,1.01-1.81,1.63-.63.62-1.25,1.25-1.84,1.9-.6.65-1.11,1.24-1.54,1.77.61-.53,1.3-1.12,2.09-1.75.79-.63,1.58-1.23,2.39-1.79.81-.56,1.56-1.02,2.24-1.39s1.23-.55,1.63-.55c.46,0,.91.18,1.37.55s.68.77.68,1.2c0,.33-.04.68-.13,1.06-.09.38-.2.75-.32,1.1-.03.15-.06.3-.11.46s-.1.29-.15.42c.28-.33.57-.7.87-1.1.33-.41.67-.81,1.01-1.22.34-.4.67-.73.97-.99.71-.58,1.23-.78,1.56-.61.15.1.26.23.32.4.06.17.11.32.13.48.05.23.11.52.17.87.06.36.15.75.25,1.18.13.41.3.8.51,1.2.21.39.49.74.82,1.04.33.25.8.38,1.41.38.48,0,1-.08,1.56-.23.56-.15,1.05-.33,1.48-.53,1.04-.51,2.06-1.1,3.06-1.79,1-.68,2.01-1.46,3.02-2.32l2.36-1.94c.2-.15.37-.22.49-.21.13.01.2.04.23.1v.08c0,.05-.01.13-.04.23-.03.1-.09.22-.19.34-.18.25-.44.58-.8.99-.35.41-.8.82-1.33,1.25-.58.48-1.28,1.03-2.09,1.65-.81.62-1.67,1.21-2.57,1.77-.9.56-1.81,1.01-2.72,1.37-.48.18-.95.33-1.41.46s-.9.19-1.33.19c-.99,0-1.77-.22-2.34-.67-.57-.44-1.02-.96-1.35-1.54-.15-.3-.29-.61-.4-.93-.11-.32-.21-.6-.29-.86-.05-.2-.09-.4-.13-.59-.04-.19-.08-.36-.13-.51-.28.25-.56.55-.84.89-.28.34-.56.69-.84,1.04-.3.41-.58.78-.84,1.12-.25.34-.46.61-.61.82-.28.36-.62.53-1.03.53-.25,0-.47-.08-.65-.25-.18-.16-.27-.41-.27-.74,0-.46.13-1.06.4-1.8.27-.75.45-1.44.55-2.07,0-.05,0-.11.02-.17.01-.06.02-.12.02-.17,0-.33-.06-.54-.19-.63-.13-.09-.27-.13-.42-.13-.25,0-.56.08-.93.25-.37.17-.69.34-.97.51-.25.15-.65.44-1.18.88s-1.12.92-1.77,1.48c-.65.56-1.29,1.13-1.92,1.71-.41.38-.78.73-1.12,1.06-.34.33-.65.62-.93.87-.63.58-1.05.87-1.25.87Z"/>
      <path class="cls-6" d="M90.04,173.28c-.76,0-1.45-.2-2.07-.59-.62-.39-.93-1.11-.93-2.15,0-.38.05-.78.15-1.2.1-.42.22-.83.34-1.24-.43.43-.96.93-1.6,1.5-.63.57-1.32,1.12-2.07,1.65-.75.53-1.5.97-2.24,1.31-.75.34-1.45.51-2.11.51-.81,0-1.47-.29-1.98-.88-.36-.38-.53-.89-.53-1.52,0-.71.23-1.48.7-2.3.47-.82,1.09-1.63,1.86-2.43.77-.8,1.61-1.5,2.51-2.11.9-.61,1.78-1.05,2.64-1.33,1.19-.38,2.14-.57,2.85-.57.81,0,1.39.21,1.75.63.35.42.58.99.68,1.73v.11c0,.33-.11.58-.34.76-.1.05-.18.08-.23.08-.25,0-.38-.19-.38-.57,0-.18-.04-.42-.11-.74-.08-.32-.33-.49-.76-.51-.58-.08-1.27.04-2.07.36-.8.32-1.62.76-2.45,1.33-.84.57-1.63,1.2-2.38,1.88-.75.68-1.37,1.36-1.86,2.03-.49.67-.78,1.26-.85,1.77-.03.08-.04.15-.04.23v.19c0,.38.08.63.25.76.16.13.36.19.59.19.43,0,.92-.13,1.48-.4.56-.27,1.08-.56,1.58-.89.49-.33.84-.58,1.05-.76.78-.66,1.68-1.39,2.68-2.19,1-.8,1.89-1.54,2.68-2.22.13-.1.32-.15.57-.15.38,0,.7.1.95.3.1.08.15.22.15.42,0,.3-.11.68-.34,1.14-.41.86-.75,1.63-1.03,2.32-.28.68-.42,1.24-.42,1.67,0,.61.35.91,1.06.91.56,0,1.46-.21,2.7-.65,1.29-.48,2.6-1.15,3.93-2.01s2.53-1.72,3.59-2.58c.13-.13.25-.23.38-.32.13-.09.24-.17.34-.25.13-.1.25-.2.36-.29.11-.09.25-.2.4-.32.08-.02.16-.04.27-.04.2,0,.3.09.3.27,0,.15-.06.29-.19.42-.15.2-.52.57-1.1,1.1-.58.53-1.3,1.13-2.15,1.79-.85.66-1.77,1.29-2.77,1.88-1,.6-2.01,1.07-3.02,1.42-.38.13-.82.25-1.31.36-.49.11-.98.17-1.46.17Z"/>
      <path class="cls-6" d="M115.85,175.75h-.08c-.15,0-.23-.08-.23-.23s.05-.28.15-.38c.35-.66.53-1.18.53-1.56,0-.66-.41-1.13-1.24-1.42-.82-.29-1.93-.44-3.33-.44-1.06,0-2.21.07-3.44.21-1.23.14-2.43.31-3.59.51-1.17.2-2.22.41-3.15.63s-1.66.39-2.17.51c-.25.03-.46-.04-.63-.21-.17-.17-.25-.35-.25-.55,0-.18.06-.35.19-.51.13-.17.32-.3.57-.4l.3-.11c.73-.28,1.46-.59,2.17-.93.71-.34,1.41-.68,2.09-1.01.23-.1.63-.3,1.22-.61.58-.3,1.25-.67,2-1.1.75-.43,1.47-.88,2.17-1.35.7-.47,1.27-.92,1.73-1.35.46-.43.68-.79.68-1.06,0-.18-.13-.28-.4-.3-.27-.02-.6-.04-1.01-.04-.68,0-1.46.06-2.34.19s-1.67.27-2.38.42c-.71.15-1.18.28-1.41.38-.08.03-.17.06-.27.09s-.2.08-.3.13c-.1.03-.2.07-.3.13-.1.06-.2.15-.3.25-.18.08-.27.25-.27.53,0,.03,0,.07.02.13.01.06.03.13.06.21v.08c0,.13-.04.2-.13.23-.09.03-.16.04-.21.04-.18-.05-.29-.14-.34-.27-.05-.08-.12-.17-.21-.29-.09-.11-.17-.23-.25-.36-.23-.33-.34-.67-.34-1.03,0-.46.4-.86,1.22-1.22.81-.35,1.88-.62,3.21-.8,1.33-.18,2.76-.24,4.28-.19.35,0,.81.06,1.37.17.56.11,1.06.29,1.52.53.46.24.68.55.68.93,0,.43-.33.91-.99,1.44-.56.43-1.24.9-2.05,1.41-.81.51-1.67,1.01-2.56,1.52-.9.51-1.77.98-2.62,1.41-.85.43-1.59.79-2.22,1.06,1.37-.28,2.75-.5,4.14-.67,1.39-.17,2.76-.25,4.1-.25.63,0,1.26.02,1.88.06.62.04,1.22.12,1.81.25.51.1,1.03.34,1.56.7s.8.93.8,1.69c0,.68-.3,1.48-.91,2.39-.08.1-.16.19-.25.27s-.18.11-.28.11Z"/>
      <path class="cls-6" d="M119.8,173.55c-.94,0-1.62-.25-2.05-.76-.43-.51-.65-1.08-.65-1.71,0-.33.06-.71.19-1.14.2-.58.53-1.2.97-1.84.44-.65.94-1.21,1.5-1.69.56-.48,1.11-.77,1.67-.87.1-.03.29.02.57.13s.55.24.82.38c.27.14.42.26.48.36.05.15.08.25.08.3,0,.33-.17.41-.49.23-.23-.15-.56-.08-.99.23-.43.3-.85.67-1.27,1.1-.42.43-.75.8-1.01,1.1-.3.33-.56.72-.78,1.16s-.32.84-.32,1.2c0,.2.08.39.23.55.15.17.46.25.91.25.13,0,.26,0,.4-.02.14-.01.3-.03.48-.06.48-.1,1.08-.33,1.81-.68.72-.35,1.48-.8,2.28-1.35.8-.54,1.54-1.13,2.22-1.77.35-.35.71-.74,1.06-1.16.35-.42.66-.85.91-1.31-1.32-.03-2.67-.11-4.05-.27-1.38-.15-2.44-.43-3.17-.84-.35-.2-.61-.42-.78-.65-.17-.23-.25-.44-.25-.65,0-.23.08-.42.23-.57.15-.15.32-.23.49-.23.15,0,.29.05.42.15.08.05.15.11.23.17.08.06.15.12.23.17.94-.51,1.87-.87,2.79-1.08.92-.21,1.73-.32,2.41-.32.79,0,1.5.17,2.15.49.65.33,1.02.92,1.12,1.79.02.15.04.3.04.44v.4h2.24c.76,0,1.54-.05,2.34-.15.8-.1,1.53-.23,2.2-.4.67-.16,1.17-.33,1.5-.51.18-.1.33-.15.46-.15.25,0,.38.09.38.27,0,.28-.24.51-.72.68-.56.25-1.41.51-2.55.76s-2.34.41-3.61.46c-.3.03-.67.04-1.08.06-.42.01-.88.02-1.39.02-.28,1.01-.82,1.96-1.62,2.85-.8.89-1.73,1.67-2.79,2.34s-2.15,1.2-3.25,1.58-2.1.57-2.98.57ZM129.3,165.11c.08-.23.11-.44.11-.65,0-.4-.17-.73-.49-.99-.33-.25-.9-.38-1.71-.38-.71,0-1.39.08-2.05.25-.66.17-1.28.39-1.86.67.89.33,1.85.58,2.89.76,1.04.18,2.08.29,3.12.34ZM126.53,160.05c-.25,0-.38-.1-.38-.3,0-.13.08-.25.23-.36.15-.11.33-.22.53-.32.66-.35,1.29-.75,1.9-1.18.61-.43,1.11-.8,1.52-1.1l.08-.08c.2-.05.42,0,.67.13.24.14.42.3.55.49.13.19.13.36,0,.51-.46.25-1.1.58-1.92.97-.82.39-1.54.72-2.15.97-.35.18-.7.27-1.03.27Z"/>
      <path class="cls-6" d="M134.24,173.17c-.2,0-.35-.06-.44-.19-.09-.13-.13-.28-.13-.46,0-.28.06-.54.19-.8s.2-.42.23-.49c.2-.41.52-.96.95-1.65.43-.7.93-1.44,1.5-2.22.57-.79,1.16-1.53,1.77-2.22.61-.7,1.18-1.27,1.73-1.73s1.02-.68,1.43-.68c.1,0,.32.08.67.25.34.17.59.3.74.4.18.1.27.25.27.46,0,.3-.14.46-.42.46-.15,0-.25.01-.3.04-.05,0-.18.04-.38.11-.43.18-.97.55-1.62,1.12-.65.57-1.31,1.22-1.98,1.96-.67.74-1.27,1.43-1.81,2.09.79-.68,1.68-1.37,2.68-2.05,1-.68,1.94-1.2,2.83-1.56.3-.13.59-.22.85-.29.27-.06.51-.09.74-.09.79,0,1.3.29,1.56.87.25.58.42,1.17.49,1.75.05.23.08.46.1.68.01.23.03.44.06.65.1.94.29,1.56.57,1.86.28.3.62.46,1.03.46.33,0,.71-.07,1.14-.21.43-.14.9-.33,1.41-.59,1.04-.51,2.12-1.15,3.23-1.92,1.11-.77,2.18-1.58,3.19-2.41l2.36-1.9c.2-.15.37-.23.49-.23s.2.03.23.08v.08c0,.05-.01.13-.04.25-.03.11-.08.23-.15.36-.18.25-.44.58-.8.99-.35.41-.81.82-1.37,1.25-.66.53-1.41,1.12-2.26,1.77-.85.65-1.74,1.25-2.66,1.82-.93.57-1.84,1.04-2.76,1.41s-1.79.55-2.62.55-1.45-.23-1.84-.7c-.39-.47-.66-1.04-.8-1.71-.14-.67-.27-1.3-.4-1.88-.03-.18-.06-.34-.11-.49-.05-.15-.1-.29-.15-.42-.23-.56-.57-.84-1.03-.84-.3,0-.66.08-1.06.25-.41.17-.91.45-1.52.85-.79.53-1.5,1.07-2.13,1.62-.63.54-1.2,1.07-1.71,1.58-.15.13-.31.29-.48.48-.17.19-.34.37-.51.55l-.46.46c-.1.1-.2.19-.3.27h-.19Z"/>
      <path class="cls-6" d="M157.54,173.17c-.71,0-1.35-.14-1.92-.42-.57-.28-.85-.81-.85-1.6s.19-1.5.57-2.2.83-1.35,1.35-1.92c.52-.57.96-1.02,1.31-1.35-.03-.03-.04-.09-.04-.19,0-.2.09-.41.27-.61.13-.18.31-.36.55-.55.24-.19.51-.33.82-.44.15-.05.3-.08.46-.08.3,0,.63.07.97.21.34.14.51.36.51.67,0,.18-.06.34-.19.49-.13.15-.24.25-.34.3-.41.3-.96.77-1.65,1.41-.7.63-1.29,1.24-1.77,1.82-.89,1.14-1.33,2-1.33,2.58,0,.25.11.46.32.63.21.17.6.25,1.16.25.89,0,1.77-.14,2.64-.44.87-.29,1.68-.63,2.41-1.01.61-.3,1.18-.65,1.73-1.03.54-.38,1.08-.77,1.62-1.18.53-.43,1.07-.87,1.62-1.31.54-.44,1.1-.89,1.65-1.35.15-.05.25-.08.3-.08.18,0,.27.09.27.27,0,.13-.06.28-.19.46-.15.2-.47.53-.95.99-.48.46-1.07.97-1.77,1.54-.7.57-1.48,1.13-2.34,1.69-.86.56-1.75,1.04-2.66,1.44-.48.23-1.15.45-2.01.67-.86.21-1.7.32-2.51.32ZM162.59,161.65c-.3,0-.52-.08-.65-.25-.13-.17-.19-.37-.19-.63,0-.28.05-.52.15-.72.08-.2.34-.38.8-.53s.94-.27,1.46-.34c.52-.08.92-.11,1.2-.11s.42.06.42.19c0,.05-.02.1-.06.15-.04.05-.07.09-.1.11-.05.03-.12.06-.21.11-.09.05-.2.1-.32.15-.18.08-.37.17-.59.28-.22.11-.36.25-.44.4-.13.33-.33.61-.61.84-.28.23-.57.34-.87.34Z"/>
      <path class="cls-6" d="M172.82,173.36c-.58,0-1.14-.06-1.67-.19-.53-.13-1.01-.32-1.44-.57-.61-.38-1.05-.82-1.33-1.33-.28-.51-.42-1.04-.42-1.6,0-.86.26-1.72.78-2.58.52-.86,1.17-1.65,1.94-2.36.77-.71,1.54-1.23,2.3-1.56.73-.35,1.42-.61,2.07-.76.65-.15,1.23-.23,1.77-.23.66,0,1.21.11,1.65.34.44.23.67.57.67,1.03,0,.43-.21.94-.63,1.52-.42.58-.89,1.09-1.42,1.52-.53.43-.98.68-1.33.76-.1,0-.18-.04-.23-.13-.05-.09-.08-.16-.08-.21v-.08c0-.18.08-.32.23-.42.13-.1.32-.29.59-.57.27-.28.51-.58.74-.89.23-.32.34-.6.34-.86,0-.1-.05-.19-.15-.27-.1-.08-.33-.11-.68-.11-.63,0-1.36.2-2.19.59-.82.39-1.62.91-2.39,1.56-.77.65-1.41,1.34-1.92,2.09-.51.75-.76,1.48-.76,2.19s.35,1.26,1.06,1.58c.71.32,1.51.47,2.39.47.3,0,.59-.01.87-.04.28-.02.54-.06.8-.11,1.27-.25,2.56-.71,3.9-1.37,1.33-.66,2.62-1.42,3.86-2.28,1.24-.86,2.36-1.72,3.34-2.58.08-.02.16-.04.27-.04.2,0,.3.09.3.27,0,.15-.05.28-.15.38-.18.3-.54.69-1.08,1.16-.55.47-1.16.96-1.84,1.46s-1.35.98-2,1.41c-.65.43-1.19.76-1.62.99-.91.51-1.95.94-3.12,1.29-1.17.35-2.31.53-3.42.53Z"/>
      <path class="cls-6" d="M185.05,173.55c-.94,0-1.62-.25-2.05-.76-.43-.51-.65-1.08-.65-1.71,0-.33.06-.71.19-1.14.2-.58.53-1.2.97-1.84.44-.65.94-1.21,1.5-1.69.56-.48,1.11-.77,1.67-.87.1-.03.29.02.57.13s.55.24.82.38c.27.14.42.26.48.36.05.15.08.25.08.3,0,.33-.17.41-.49.23-.23-.15-.56-.08-.99.23-.43.3-.85.67-1.27,1.1-.42.43-.75.8-1.01,1.1-.3.33-.56.72-.78,1.16s-.32.84-.32,1.2c0,.2.08.39.23.55.15.17.46.25.91.25.13,0,.26,0,.4-.02.14-.01.3-.03.48-.06.48-.1,1.08-.33,1.81-.68.72-.35,1.48-.8,2.28-1.35.8-.54,1.54-1.13,2.22-1.77.35-.35.71-.74,1.06-1.16.35-.42.66-.85.91-1.31-1.32-.03-2.67-.11-4.05-.27-1.38-.15-2.44-.43-3.17-.84-.35-.2-.61-.42-.78-.65-.17-.23-.25-.44-.25-.65,0-.23.08-.42.23-.57.15-.15.32-.23.49-.23.15,0,.29.05.42.15.08.05.15.11.23.17.08.06.15.12.23.17.94-.51,1.87-.87,2.79-1.08.92-.21,1.73-.32,2.41-.32.79,0,1.5.17,2.15.49.65.33,1.02.92,1.12,1.79.02.15.04.3.04.44v.4h2.24c.76,0,1.54-.05,2.34-.15.8-.1,1.53-.23,2.2-.4.67-.16,1.17-.33,1.5-.51.18-.1.33-.15.46-.15.25,0,.38.09.38.27,0,.28-.24.51-.72.68-.56.25-1.41.51-2.55.76-1.14.25-2.34.41-3.61.46-.3.03-.67.04-1.08.06-.42.01-.88.02-1.39.02-.28,1.01-.82,1.96-1.62,2.85-.8.89-1.73,1.67-2.79,2.34s-2.15,1.2-3.25,1.58-2.1.57-2.98.57ZM194.55,165.11c.08-.23.11-.44.11-.65,0-.4-.17-.73-.49-.99-.33-.25-.9-.38-1.71-.38-.71,0-1.39.08-2.05.25-.66.17-1.28.39-1.86.67.89.33,1.85.58,2.89.76,1.04.18,2.08.29,3.12.34Z"/>
    </g>
    <g>
      <path class="cls-6" d="M58.58,148.21h6.63v.66c0,.91-.16,1.77-.48,2.57s-.77,1.51-1.35,2.12-1.26,1.09-2.04,1.44c-.78.35-1.62.52-2.53.52s-1.79-.18-2.58-.54c-.79-.36-1.47-.86-2.05-1.49-.58-.63-1.03-1.36-1.35-2.18s-.48-1.7-.48-2.64.16-1.8.48-2.62c.32-.82.78-1.55,1.35-2.18.58-.63,1.26-1.13,2.05-1.49.79-.36,1.65-.54,2.58-.54.57,0,1.1.06,1.6.19s.96.31,1.39.54.81.51,1.17.82.66.65.92,1.02l-.95.59c-.46-.62-1.04-1.12-1.74-1.5-.7-.38-1.49-.57-2.38-.57-.77,0-1.48.15-2.12.46-.65.3-1.21.72-1.69,1.24-.48.53-.85,1.14-1.11,1.83-.26.69-.39,1.43-.39,2.21s.13,1.52.39,2.21c.26.69.63,1.31,1.11,1.84.48.53,1.04.95,1.69,1.25.65.3,1.36.46,2.12.46s1.42-.14,2.04-.41c.62-.27,1.17-.65,1.62-1.13s.82-1.04,1.09-1.68c.27-.63.42-1.31.45-2.03h-5.43v-.97Z"/>
      <path class="cls-6" d="M68.49,155.28h-1.16v-13.76h1.16v13.76Z"/>
      <path class="cls-6" d="M77.94,155.28v-1.72c-.05.18-.2.43-.47.74-.26.31-.63.6-1.09.85s-1.01.38-1.65.38c-.74,0-1.42-.17-2.04-.52-.62-.34-1.12-.84-1.5-1.49-.38-.65-.56-1.43-.56-2.33s.19-1.69.56-2.33c.38-.65.88-1.15,1.5-1.5s1.31-.52,2.04-.52c.63,0,1.18.12,1.64.36.46.24.83.51,1.09.81.27.31.42.56.46.77v-1.7h1.12v8.21h-1.11ZM71.76,151.18c0,.69.15,1.29.45,1.79.3.5.69.88,1.17,1.15.48.27.98.4,1.5.4.58,0,1.1-.14,1.55-.41.45-.27.81-.66,1.08-1.16.26-.5.4-1.09.4-1.77s-.13-1.27-.4-1.77c-.26-.5-.62-.89-1.08-1.17-.45-.28-.97-.42-1.55-.42-.53,0-1.03.13-1.5.41-.48.27-.87.66-1.17,1.16-.3.5-.45,1.1-.45,1.79Z"/>
      <path class="cls-6" d="M90.75,146.83c.61,0,1.12.13,1.53.4.41.27.73.67.94,1.21s.31,1.24.31,2.08v4.76h-1.13v-4.46c0-1.03-.14-1.79-.42-2.28-.28-.49-.78-.73-1.5-.73-.37,0-.73.1-1.08.3-.36.2-.65.53-.89.96-.23.44-.35,1.02-.35,1.74v4.46h-1.09v-4.46c0-1.03-.18-1.79-.54-2.28-.36-.49-.83-.73-1.42-.73-.37,0-.73.1-1.08.29s-.64.51-.86.96c-.22.44-.33,1.03-.33,1.76v4.46h-1.13v-8.21h1.13v1.3c.07-.21.22-.43.46-.67.24-.24.54-.45.91-.62.37-.17.8-.25,1.28-.25.51,0,.93.11,1.26.34.33.23.59.5.78.81.19.31.3.6.35.86.1-.31.28-.62.54-.93.26-.31.59-.56.99-.77.4-.21.85-.31,1.35-.31Z"/>
      <path class="cls-6" d="M97.41,159.44h-1.14v-12.37h1.17v1.7c.04-.22.2-.48.48-.79s.67-.57,1.15-.8,1.04-.35,1.68-.35c.75,0,1.42.17,2.01.52s1.07.84,1.43,1.5c.35.65.53,1.43.53,2.33s-.18,1.68-.53,2.33c-.36.65-.84,1.15-1.44,1.49-.6.34-1.27.52-2.02.52-.65,0-1.22-.12-1.71-.37-.49-.25-.87-.53-1.15-.84-.28-.31-.43-.56-.47-.75v5.88ZM103.58,151.18c0-.69-.14-1.29-.42-1.79-.28-.5-.65-.89-1.09-1.16-.45-.27-.94-.41-1.47-.41-.58,0-1.11.14-1.59.42-.48.28-.86.67-1.15,1.17s-.42,1.09-.42,1.77.14,1.27.42,1.77.67.89,1.15,1.16,1.01.41,1.59.41c.53,0,1.02-.13,1.47-.4.45-.27.81-.65,1.09-1.15.28-.5.42-1.1.42-1.79Z"/>
      <path class="cls-6" d="M107.47,143.74c-.24,0-.44-.08-.61-.25-.17-.17-.26-.38-.26-.62s.09-.46.26-.62.38-.25.61-.25c.16,0,.31.04.44.12s.25.18.33.31c.08.13.12.28.12.45,0,.24-.09.45-.26.62-.18.17-.39.25-.64.25ZM106.89,155.28v-8.21h1.13v8.21h-1.13Z"/>
      <path class="cls-6" d="M115.06,146.83c.52,0,1.03.11,1.52.33.49.22.9.58,1.22,1.06.32.48.48,1.11.48,1.88v5.18h-1.16v-4.91c0-.91-.21-1.57-.64-1.97s-.97-.61-1.64-.61c-.44,0-.86.13-1.27.38-.41.25-.75.6-1.01,1.04-.26.44-.4.93-.4,1.48v4.59h-1.14v-8.21h1.14v1.58c.05-.23.21-.49.48-.78.27-.28.62-.53,1.04-.73.42-.21.88-.31,1.38-.31Z"/>
      <path class="cls-6" d="M127.5,155.28v-1.72c-.05.18-.2.43-.47.74-.26.31-.63.6-1.09.85s-1.01.38-1.65.38c-.74,0-1.42-.17-2.04-.52-.62-.34-1.12-.84-1.5-1.49-.38-.65-.56-1.43-.56-2.33s.19-1.69.56-2.33c.38-.65.88-1.15,1.5-1.5s1.31-.52,2.04-.52c.63,0,1.18.12,1.64.36.46.24.83.51,1.09.81.27.31.42.56.46.77v-1.7h1.12v8.21h-1.11ZM124.54,159.66c-.68,0-1.27-.07-1.78-.22-.51-.15-.93-.34-1.27-.58s-.61-.5-.79-.79l.84-.74c.12.17.29.35.5.56.21.21.52.38.91.53.39.15.92.23,1.57.23s1.2-.15,1.65-.44c.44-.29.78-.68,1-1.17s.34-1.02.34-1.61v-.29h1.11v.38c0,.89-.18,1.65-.54,2.26s-.85,1.08-1.47,1.4c-.62.32-1.3.47-2.05.47ZM121.32,151.18c0,.69.15,1.29.45,1.79.3.5.69.88,1.17,1.15.48.27.98.4,1.5.4.58,0,1.1-.14,1.55-.41.45-.27.81-.66,1.08-1.16.26-.5.4-1.09.4-1.77s-.13-1.27-.4-1.77c-.26-.5-.62-.89-1.08-1.17-.45-.28-.97-.42-1.55-.42-.53,0-1.03.13-1.5.41-.48.27-.87.66-1.17,1.16-.3.5-.45,1.1-.45,1.79Z"/>
    </g>
    <polygon class="cls-6" points="105.84 60.32 43.7 133.46 63.5 133.46 105.84 60.32"/>
  </g>
</svg>